<svg width="1920" height="495" viewBox="0 0 1920 495" fill="none" xmlns="http://www.w3.org/2000/svg">
<mask id="mask0_8_39" style="mask-type:luminance" maskUnits="userSpaceOnUse" x="0" y="0" width="1920" height="495">
<path d="M0 0H1920V495H0V0Z" fill="white"/>
</mask>
<g mask="url(#mask0_8_39)">
<path d="M1861.52 77.9252C1881.5 68.661 1900.2 58.3626 1920.07 49.0559V54.9063C1916.36 56.7336 1912.68 58.5893 1908.98 60.4308C1848.59 90.49 1784.73 114.571 1713.64 132.987C1677.52 142.336 1640.02 150.623 1603.55 159.306C1572.11 166.786 1540.95 175.398 1507.95 179.209C1484.25 181.928 1455.41 180.569 1437.48 169.08C1413.2 153.512 1439.93 137.08 1428.95 123.156C1418.02 109.302 1365.16 114.104 1343.3 116.271C1317.64 118.793 1291.52 123.099 1269.64 132.647C1229.89 149.971 1188.18 163.627 1140.14 157.011C1115.45 153.612 1094.39 139.021 1073.34 130.295C1051.55 121.272 1026.36 115.251 1001.32 111.937C975.545 108.523 948.045 107.786 921.409 110.35C874.273 114.883 828.523 125.295 782.727 133.992C730.045 143.993 676.614 154.221 623.068 161.289C576.75 167.409 528.364 171.064 482.545 165.851C443.295 161.374 410.932 148.866 378.455 134.502C352.091 122.844 322.477 116.767 290.545 115.308C258.568 113.863 225.477 116.03 193 118.779C128.795 124.204 64.4091 131.046 0 136.684V131.868C8.02273 131.202 16.0455 130.508 24.0682 129.799C62.0909 126.442 100.182 122.83 138.205 119.345C172.409 116.215 206.932 112.787 241.045 111.37C272.205 110.081 303.409 110.534 333.591 115.294C362.909 119.912 386.705 132.944 411.727 143.384C450.205 159.434 498.977 164.08 543.477 162.862C596.182 161.431 649.136 152.62 700.773 143.752C751.091 135.111 801.136 125.21 851.227 116.059C892.318 108.565 932 103.706 974.409 106.2C1020.59 108.905 1065.41 120.804 1103.39 137.449C1126.09 147.393 1148.86 154.632 1176.95 152.889C1201.84 151.331 1224.89 146.458 1246.25 137.534C1263.93 130.168 1279.55 123.212 1299.41 118.835C1327.45 112.673 1359.2 110.662 1388.5 111.016C1403.02 111.2 1443.98 111.951 1438.55 127.93C1432.86 144.602 1425.5 165.355 1458.39 172.409C1486.48 178.444 1513.75 174.492 1541.77 168.5C1617.34 152.351 1695.82 136.131 1768.14 113.58C1800.89 103.367 1832.11 91.5383 1861.52 77.9252ZM1777.27 98.0403C1704.8 122.957 1624.02 137.718 1545.32 151.883C1518.48 156.714 1487.25 162.083 1459.98 155.439C1428.91 147.875 1453.07 127.32 1458.07 114.982C1464.55 99.0035 1414.68 98.5361 1401.43 98.4227C1367.84 98.1536 1332.14 100.703 1299.41 106.483C1259.48 113.552 1224.5 132.788 1183.43 134.729C1153.89 136.117 1124.34 128.383 1096.61 121.541C1048.59 109.67 998.295 97.2895 947.045 94.3006C908.409 92.0624 872.5 96.0146 835.023 103.239C790.364 111.837 745.545 120.549 700.455 127.873C648.795 136.273 595.341 143.937 542.682 145.353C500.773 146.472 454.091 143.115 417.818 127.915C393.341 117.645 371.523 106.171 343.818 101.27C313.932 96.0004 280.977 95.6463 249.068 96.6237C213.909 97.7003 178.273 100.746 142.955 103.522C103.886 106.582 64.7955 109.812 25.75 112.957C17.1591 113.651 8.56818 114.316 0 114.996V119.402C66.5455 113.991 133.159 107.857 199.591 103.154C233.091 100.774 267.182 98.9469 300.091 100.661C330.659 102.247 361.682 107.46 387.068 119.501C416.114 133.256 444.909 143.526 480.5 147.86C526.727 153.498 577.318 148.781 623.477 143.257C674.705 137.137 725.932 128.354 776.091 118.949C816.409 111.384 856.636 101.837 898.068 97.8136C923.614 95.3347 949.727 96.5812 975.023 99.386C1003.57 102.559 1031.93 108.622 1059.14 115.365C1089.59 122.929 1120.77 133.922 1152.25 137.576C1197.73 142.846 1224.5 131.4 1264.14 118.679C1291.16 109.996 1321.23 106.115 1350.75 103.607C1375.41 101.497 1435.27 95.8446 1448.39 110.194C1459.2 122.022 1424.41 137.803 1440.73 152.039C1454.48 164.009 1487.48 164.08 1508.73 161.672C1543.41 157.734 1577.2 149.929 1611 143.101C1649.3 135.366 1687.73 127.25 1724.45 117.461C1759.45 108.14 1793.73 97.0912 1825.61 83.6481C1854.98 71.2674 1880.98 55.2321 1909.34 43.2339C1912.82 41.7465 1916.41 40.3441 1920.07 38.9842V35.4145C1899.89 42.4689 1881.95 51.5349 1863.66 60.9974C1836.64 74.9646 1808.02 87.4728 1777.27 98.0403ZM1540.84 185.64C1512.89 191.604 1485.61 195.598 1457.68 189.564C1429 183.373 1422.27 158.315 1422.57 141.812C1422.86 126.499 1394.39 123.666 1375.8 123.652C1350.2 123.637 1323.07 125.408 1299.23 132.208C1279.09 137.945 1263.07 147.889 1243.98 154.858C1216.77 164.774 1186.34 171.729 1156.7 173.288C1129.66 174.704 1108.8 170.398 1091.59 156.459C1081.93 148.625 1074.43 139.588 1061.02 133.525C1042.09 124.969 1017.86 120.988 995.864 119.26C950.864 115.719 906.068 122.306 861.591 130.451C807.068 140.424 752.636 151.614 698.182 161.799C648.432 171.092 597.182 180.441 546.114 181.744C500.136 182.906 451.5 176.092 411.477 160.539C383.636 149.702 356.955 134.941 324.977 129.842C295.205 125.082 264.523 124.756 233.818 126.385C200.818 128.142 167.409 131.981 134.318 135.466C97.25 139.361 60.0682 143.271 22.8864 146.798C15.2727 147.535 7.63636 148.215 0 148.894V154.136C62.7045 148.427 125.25 140.976 187.591 134.8C219.159 131.669 251.295 129.162 282.432 130.451C315.955 131.839 346.182 139.021 374.318 150.977C409.568 165.978 446.273 179.931 487.841 185.102C531.727 190.541 577.659 187.212 621.955 180.923C675.568 173.33 728.795 161.983 781.682 151.501C833.136 141.288 884.773 129.346 938.409 124.303C965.568 121.753 993.591 121.753 1018.73 126.201C1039.14 129.799 1056.68 136.188 1068.45 148.385C1079.89 160.255 1092.16 175.469 1114.98 178.642C1166.73 185.838 1230.57 169.165 1271.57 148.909C1291.05 139.29 1312.16 132.675 1336.5 129.516C1356.43 126.938 1401.66 123 1411.98 136.783C1423.34 151.983 1414.86 171.885 1436.64 186.518C1454.32 198.389 1483.59 199.451 1507.2 196.731C1540.09 192.949 1571.25 184.691 1602.55 176.786C1637.34 168.018 1671.75 158.513 1706.09 149.149C1777.66 129.601 1845.75 107.248 1908.02 77.8827C1912.05 75.9845 1916.07 74.0722 1920.07 72.1599V65.4879C1869.09 89.4276 1818 111.823 1759.55 129.233C1688.64 150.354 1614.41 169.916 1540.84 185.64ZM1456.95 206.704C1429.66 200.542 1420.68 173.344 1413.2 157.408C1406.48 143.129 1387.41 137.095 1364.89 137.137C1342.09 137.194 1318.36 139.63 1298.34 147.464C1244.05 168.684 1191.57 191.264 1128.64 195.003C1106.59 196.306 1074.68 194.068 1066.18 177.778C1054.61 155.637 1048.52 138.95 1006.7 134.446C959.614 129.389 908.955 138.554 861.523 147.336C804.909 157.819 748.636 170.171 692.364 181.461C645.659 190.824 597.455 200.372 549.295 201.477C503.591 202.525 457.5 193.842 417.205 178.911C385.614 167.211 354.705 151.359 319.591 145.438C289.932 140.438 259.318 140.112 228.591 142.067C196.568 144.092 164.136 148.342 132.068 152.11C95.5909 156.388 58.9318 160.496 22.2045 163.995C14.8182 164.703 7.40909 165.369 0 166.021V171.588C61.7727 165.921 123.25 158.442 184.455 151.558C215.364 148.087 246.295 145.551 277.318 146.571C313.432 147.747 346.636 157.167 376.886 169.18C414 183.912 452.295 199.239 494.75 205.103C535.773 210.755 578.568 207.795 619.955 201.548C671.523 193.771 722.545 181.971 773.341 171.262C829.455 159.434 886.273 146.274 943.955 140.721C968.25 138.384 997.136 136.627 1020.14 143.313C1036.55 148.087 1044.2 158.711 1047.07 169.265C1050.68 182.523 1057.55 197.836 1082.61 201.477C1141.93 210.118 1216.48 186.376 1264.77 167.451C1286.48 158.938 1306.66 148.725 1331 144.277C1351.66 140.494 1387.07 138.256 1400.2 151.968C1407.3 159.363 1411.02 168.67 1415.25 177.82C1414.45 176.659 1413.61 175.526 1412.68 174.477C1401.59 161.672 1381.77 151.968 1357.18 152.337C1334.18 152.677 1315.89 157.493 1295.52 164.831C1233.64 187.184 1168.02 212.441 1097.75 217.186C1075.84 218.674 1039.18 218.73 1033.23 200.386C1026.48 179.605 1036.8 159.618 998.386 152.79C953.5 144.815 895.682 157.861 850.114 166.729C794.682 177.509 739.705 190.314 684.727 202.086C641.727 211.279 597.227 220.671 552.773 221.507C508 222.357 465.614 212.2 426.455 198.091C392.182 185.739 357.886 169.335 319.864 162.692C289.409 157.365 258.386 156.643 226.841 158.839C195.295 161.02 163.273 165.567 131.705 169.321C95.1591 173.67 58.2045 177.679 21.3864 181.135C14.2727 181.801 7.13636 182.438 0 183.062V189.11C61.8636 183.558 123.477 176.39 184.795 169.307C215.773 165.737 246.591 163.074 277.636 164.25C315.932 165.723 351.886 175.922 384.5 188.36C421.932 202.638 460.25 219 502.25 225.303C540.023 230.984 579.659 228.505 617.841 222.484C665.932 214.892 713.455 203.021 760.773 192.439C816.977 179.86 874.068 166.077 931.955 160.227C954.091 157.989 984.136 155.241 1003.3 163.485C1017.25 169.491 1016.68 182.24 1016.18 191.844C1015.39 207.922 1022.84 220.275 1048.91 224.553C1110.84 234.723 1193.91 206.931 1250.25 187.283C1275.57 178.472 1300.89 167.211 1328.48 161.204C1351.91 156.091 1380.36 156.487 1397.34 169.01C1407.82 176.73 1411.25 186.886 1415.25 196.845C1414.2 195.06 1413.07 193.36 1411.8 191.759C1401.07 178.387 1381.7 169.279 1355.64 169.25C1330.5 169.222 1307.89 176.361 1286.3 183.373C1218.39 205.429 1145.93 234.355 1069 239.016C1046.98 240.347 1005.59 241.31 998.818 223.235C992.727 206.973 1014.07 180.144 977.614 173.472C932.386 165.199 875.818 178.897 832.818 187.68C780.432 198.389 728.591 211.209 676.727 222.966C637.955 231.749 597.909 240.531 556.295 241.296C513.205 242.089 473.364 230.998 437.318 217.597C401.705 204.367 365.25 188.048 325.523 181.079C294.091 175.554 262.205 174.506 229.659 176.673C197.773 178.784 165.364 183.303 133.409 186.943C96.25 191.193 58.6818 195.046 21.2727 198.403C14.2045 199.04 7.09091 199.65 0 200.245V206.746C62.9773 201.378 125.773 194.564 188.227 187.68C219.864 184.181 251.273 181.617 282.909 182.977C322.818 184.691 360.727 195.301 394.932 208.092C430.955 221.549 468.227 239.129 509.227 245.192C544.955 250.475 580.705 248.79 616.205 243.053C660.091 235.984 703.409 224.439 746.477 214.226C800.364 201.434 855.227 187.623 910.977 181.716C930.545 179.648 961.545 176.432 976.568 185.569C987.932 192.482 983.568 205.599 981.773 215.062C978.545 232.004 992.364 244.058 1019.8 246.849C1091.48 254.116 1170.39 227.57 1231.5 207.837C1261.77 198.063 1291.91 186.136 1324.48 179.265C1348.68 174.18 1378.77 172.82 1396.09 186.518C1405.8 194.196 1409.02 204.154 1412.89 213.914C1411.98 212.299 1411 210.713 1409.93 209.211C1399.86 194.819 1377.27 186.476 1352.36 186.787C1323.95 187.141 1297.59 195.102 1272.7 202.653C1201.66 224.213 1126.84 254.796 1047.5 259.626C1023.3 261.085 981.477 261.879 968.977 245.305C958.068 230.842 981.909 202.667 949.909 195.542C908.682 186.362 852.227 200.924 812.773 209.395C764.75 219.708 717.273 232.202 669.773 243.435C634 251.878 597.773 259.286 559.5 260.264C519.159 261.298 481.273 249.98 447.841 237.018C412.386 223.278 374.818 207.044 334.295 200.06C302 194.493 268.773 192.822 235.25 195.046C202.295 197.241 169.318 201.378 136.523 204.848C98.4091 208.885 59.8864 212.526 21.5227 215.742C14.3636 216.337 7.18182 216.917 0 217.498V224.425C64.6818 219.255 129.227 212.894 193.455 206.392C226.091 203.092 258.455 200.698 290.977 202.242C331.841 204.197 370.932 214.849 405.955 227.938C440.295 240.758 475.364 258.366 514.5 264.202C548.159 269.231 582.227 267.942 615.682 262.615C655.295 256.312 694.227 245.489 732.864 235.814C782.727 223.334 833.659 209.82 885.295 204.253C902.023 202.454 933.159 199.04 945.227 208.56C954.773 216.067 949.795 228.434 949.705 237.868C949.5 257.119 975.818 264.698 1001.25 267.361C1071.61 274.755 1149.02 248.237 1211.93 228.533C1245.89 217.895 1279.91 205.358 1316.25 198.063C1340.75 193.148 1375.02 189.507 1393.23 204.296C1401.98 211.407 1405.64 220.246 1409.34 229.029C1408.82 228.25 1408.3 227.471 1407.73 226.72C1396.59 211.733 1372.32 204.083 1346.45 204.763C1314.95 205.599 1285.39 214.056 1257.43 222.201C1188.02 242.458 1115.57 273.537 1038.41 278.183C1009.68 279.926 971.932 279.345 949.682 265.604C929.227 252.969 948.818 225.629 920 218.051C882.955 208.305 828.227 223.136 793.068 231.055C750.159 240.715 707.705 252.6 665.182 262.799C631.636 270.845 597.727 277.064 561.795 277.971C523.523 278.948 487.409 268.664 456.023 255.929C420.932 241.679 383.886 226.607 344.364 219.297C311.614 213.234 276.795 211.903 242.295 213.702C208.477 215.487 174.114 219.609 140.205 222.853C100.909 226.607 61.2727 230.006 21.7955 233.08C14.5227 233.647 7.27273 234.199 0 234.738V242.061C66.5682 237.075 133.068 231.225 199.273 225.218C233.023 222.159 266.523 219.963 300.091 221.705C341.023 223.83 380.523 234.143 415.386 247.472C447.5 259.74 479.636 276.2 516.25 282.532C549.773 288.326 582.727 286.513 616.182 280.903C652.227 274.84 687.409 265.548 722.318 256.439C767.068 244.767 812.705 232.032 859.182 226.904C874.864 225.176 903.227 222.286 914.5 231.437C923.364 238.633 921.977 250.773 925.818 259.23C933.295 275.633 971.636 284.076 996.932 286.059C1066.3 291.47 1133.77 268.027 1195.11 248.761C1231.34 237.372 1267.66 225.091 1305.91 217.201C1331.39 211.945 1369.41 206.945 1389.57 222.201C1398.36 228.873 1402.66 237.117 1406.7 245.404C1406.39 244.993 1406.07 244.583 1405.73 244.186C1392.98 228.632 1366.41 221.889 1339.41 222.938C1305.48 224.255 1273.36 232.868 1243.18 241.594C1177.05 260.703 1108.27 291.995 1035.89 297.576C1002.52 300.154 972.886 295.862 945.114 283.651C931.295 277.574 922.159 270.449 915.5 260.689C909.955 252.558 906.455 243.818 892.568 240.078C858.159 230.814 809.295 244.228 776.773 251.864C738.977 260.731 701.409 271.072 663.818 280.719C630.114 289.374 596.727 298.142 560.5 299.573C522.886 301.061 489.364 286.541 459.795 273.877C426.955 259.796 391.682 245.418 353.909 238.421C320.432 232.23 284.727 230.814 249.409 232.372C214.364 233.93 178.727 237.783 143.545 240.786C103.091 244.257 62.3636 247.416 21.75 250.376C14.5 250.9 7.25 251.41 0 251.92V259.641C68.2273 254.768 136.455 249.385 204.455 243.917C239.182 241.126 274.023 239.115 308.523 241.055C348.591 243.294 387.386 252.827 421.068 266.27C451.682 278.495 480.614 298.822 514.705 306.415C548.273 313.88 581.409 311.104 614.568 303.624C649.045 295.848 682.75 284.459 717.182 275.308C756.432 264.868 796.114 253.252 836.886 248.747C852.682 247.005 876.932 245.05 889.523 253.238C900.295 260.221 905.636 270.888 915.932 278.098C935.477 291.782 962.977 304.644 993.386 307.237C1061.3 313.03 1125.16 287.377 1184.55 267.927C1220.61 256.113 1257.18 244.143 1295.61 236.338C1322.64 230.856 1363.39 224.765 1385.98 240.106C1394.68 246.013 1399.61 253.309 1403.95 260.816C1389.5 245.546 1359.39 239.554 1332.77 241.055C1297.89 243.01 1264.59 251.042 1232.7 260.349C1167.45 279.387 1103 312.818 1031.64 319.292C997.932 322.351 967.841 318.017 942.068 303.964C919.386 291.612 902 267.927 872.25 260.717C839.455 252.77 797.5 263.621 766.818 271.015C730.682 279.727 696.182 290.89 661.864 302.378C628.955 313.37 595.568 324.334 558.341 326.374C518.614 328.57 485.909 310.112 459.045 293.949C430.75 276.922 397.909 263.919 361.136 257.105C327.295 250.844 291 249.484 255.25 250.801C218.977 252.147 182.114 255.703 145.705 258.507C104.273 261.695 62.6364 264.641 21.1136 267.531C14.0682 268.027 7.02273 268.508 0 268.99V277.234C69.1591 271.695 138.659 267.191 207.773 262.275C243.432 259.726 279.227 257.912 314.591 259.924C352.068 262.063 392.75 270.01 421.159 284.501C450.5 299.46 475.75 326.318 512.5 335.369C546.068 343.642 579.364 339.888 611.955 331.063C647.364 321.459 681.227 307.223 715.591 295.323C749.636 283.552 784.614 273.409 822.523 268.848C839.364 266.822 860.182 266.638 875.386 272.942C891.159 279.486 902.295 288.312 913.114 297.732C930.864 313.215 956.886 328.088 988.227 330.553C1058.52 336.092 1123.27 307.378 1182.11 286.045C1215.8 273.849 1250.75 262.53 1287.59 255.093C1316.07 249.342 1358.8 242.883 1383.41 257.842C1391.07 262.488 1396.36 268.466 1400.55 274.698C1383.77 261.44 1353.41 257.289 1328.07 258.833C1293.36 260.944 1260.52 268.536 1228.75 277.999C1160.59 298.284 1099.75 334.165 1026.41 342.311C993.023 346.022 961.818 341.744 937.227 326.743C913.523 312.294 900.023 284.175 863.818 279.047C829.273 274.146 795.977 280.124 764.25 289.402C727.773 300.083 693.273 314.773 658.773 328.329C627.432 340.639 593.432 353.87 555.682 356.122C514.136 358.601 481.795 338.401 457.5 320.354C431.023 300.721 404.773 282.036 364.273 275.01C329.841 269.018 294.159 267.602 258.477 268.721C221.182 269.896 183.341 273.14 145.841 275.818C103.932 278.821 62.2727 283.113 20.9773 288.184C14.3409 288.992 7.18182 289.671 0 290.351V314.518C58.0455 307.86 141.455 286.003 208.205 280.379C244.023 277.362 280.614 276.002 316.5 277.886C357.273 280.025 392.455 290.351 419.409 308.979C446.477 327.663 471.568 357.156 509.955 366.845C543.114 375.217 576.909 370.542 608.841 360.91C644.818 350.045 678.477 334.066 712.545 320.028C746.023 306.217 780.114 292.618 818.864 287.348C835.773 285.039 857.341 285.223 872.455 291.683C888.795 298.667 898.159 310.183 908.273 320.481C924.523 337.055 950.364 352.581 982.386 354.833C1054.77 359.89 1120.77 328.882 1179.86 305.678C1213.05 292.646 1246.95 280.733 1284.11 273.084C1314.32 266.865 1356.64 261.326 1382.82 275.223C1390.52 279.316 1395.36 284.926 1399.09 290.89C1382.36 278.042 1351.8 274.472 1326.89 276.016C1291.64 278.183 1258.68 285.762 1227.09 296.032C1159.64 317.96 1097.3 357.425 1020.95 365.627C986.841 369.296 955.864 365.924 931.523 350.739C907.955 336.035 896.705 304.814 861.273 298.553C826.114 292.335 792.318 300.848 761.023 311.897C724.455 324.816 690 341.531 655.114 356.561C624.523 369.749 590.818 383.646 552.932 386.507C511 389.652 478.591 369.296 455.568 350.626C430.295 330.142 403.318 304.361 363.068 294.884C329.455 286.966 293.795 285.592 258.295 287.617C220.864 289.771 183.545 295.763 146.977 302.406C106.136 309.815 65.7273 318.682 25.5 327.564C17.6364 329.307 8.72727 330.851 0 332.409V366.378C57.6818 355.739 140.568 322.224 209.114 309.192C243.886 302.576 279.591 298.695 315.523 300.947C357.386 303.582 391.75 319.164 417.477 339.237C442.841 359.04 468.182 389.255 507.432 398.25C540.659 405.871 574.364 400.757 605.705 390.884C641.886 379.509 675.182 362.737 708.659 347.453C741.25 332.55 775.432 315.524 815.545 309.404C832.682 306.783 853.773 306.996 868.273 313.965C883.909 321.473 892.614 334.803 902.318 344.945C918.364 361.661 943.455 376.478 976.727 378.829C1050.11 384.028 1119.2 350.442 1176.66 326.587C1210.57 312.506 1245.09 299.106 1283.41 290.748C1312.68 284.374 1356.77 278.226 1382 292.547C1389 296.513 1393.55 301.698 1397.09 307.251C1380.16 295.04 1350.57 291.499 1326.07 293.17C1289.95 295.621 1256.34 304.248 1224.45 315.368C1156.8 338.982 1093.93 379.481 1016.07 388.193C982.295 391.975 950.682 389.326 925.864 374.665C901.682 360.372 891.523 327.989 856.977 321.317C821.523 314.461 787.409 325.142 756.705 337.324C720.568 351.66 686.477 369.48 651.409 385.09C621.318 398.477 588.045 411.991 550.477 415.249C509.159 418.818 476.5 400.757 453.5 382.201C428.068 361.675 401.409 334.066 362.068 323.23C328.841 314.093 293.841 312.96 258.818 317.521C221.568 322.38 185.841 332.862 150.818 343.444C111.295 355.399 72.3864 368.63 33.2045 380.94C23.0682 384.127 11.0909 387.003 0 389.907V429.868C57.6364 418.082 141.659 371.548 211.909 349.903C244.795 339.775 279.091 332.508 315.409 333.684C356.659 335.015 390.386 352.581 415.455 372.228C440.068 391.522 466.023 419.725 505.273 426.992C538.568 433.168 572.091 428.168 603.045 418.705C639.068 407.684 671.977 391.153 704.545 375.585C737.068 360.046 770.727 341.631 810.909 334.364C827.705 331.332 848.727 331.29 862.841 338.557C877.977 346.348 886.364 359.394 896.227 369.707C912.341 386.549 939.977 399.525 972.182 401.352C1046.7 405.574 1115.07 372.965 1173.05 348.062C1207.61 333.202 1242.59 318.739 1281.75 309.489C1310.91 302.619 1355.32 295.748 1380.7 310.311C1387.09 313.965 1391.41 318.654 1394.8 323.683C1377.52 312.124 1348.57 309.177 1324.64 311.104C1287.68 314.064 1253.32 323.555 1221.27 335.44C1154.95 360.046 1090.64 400.432 1012.5 408.973C979.159 412.628 947.091 410.673 921.182 397.273C895.727 384.127 885.318 353.912 851.75 345.88C817.818 337.778 778.841 352.552 751.955 363.941C716.75 378.858 683.205 396.749 648.182 411.863C617.614 425.051 585.614 436.256 548.705 440.038C509.455 444.076 475.705 430.137 451.568 412.487C425.864 393.675 399.068 366.718 361.295 356.788C328.023 348.019 293.955 348.699 260.455 356.065C223.5 364.196 189.636 378.886 156.295 392.966C118.386 408.973 81 425.915 42.4091 440.903C29.5227 445.917 13.3409 450.337 0 454.813V494.972C59.8409 485.368 144.841 427.134 215.75 396.876C246.409 383.787 279.068 372.866 315.795 371.746C354.886 370.557 388.318 387.059 413.477 404.823C438.114 422.176 465.182 445.945 503.841 450.493C537.455 454.445 570.5 450.408 601.386 442.036C636.909 432.417 669.386 417.289 700.864 402.457C733.295 387.187 766.25 368.517 805.75 360.556C822.136 357.241 843.023 356.519 856.977 363.913C871.909 371.817 879.909 383.9 890.864 393.349C909.886 409.753 937.205 419.045 969.636 421.156C1042.5 425.887 1111.02 394.794 1169.52 369.381C1204.7 354.11 1240 338.939 1279.59 328.924C1308.55 321.586 1353.41 313.767 1379.2 328.357C1391.57 335.355 1396.2 346.206 1401.32 356.009C1405.84 364.635 1412.45 373.248 1423.34 379.424C1443.43 390.842 1473.3 392.371 1498.91 390.091C1531.43 387.201 1562.86 380.501 1594.23 373.914C1629.25 366.576 1663.91 358.204 1696.91 348.218C1767.61 326.799 1831.77 297.123 1897.3 269.84C1904.91 266.667 1912.5 263.423 1920.07 260.165V248.266C1862.2 273.65 1802.61 298.298 1741.7 320.552C1675.18 344.86 1604.27 361.986 1530.61 375.699C1503.34 380.784 1476.57 383.787 1449.77 378.22C1435.5 375.245 1427.23 368.134 1421.11 359.791C1422.18 360.527 1423.27 361.236 1424.43 361.901C1444.14 373.347 1474.34 374.948 1499.66 372.667C1532.34 369.721 1563.73 362.638 1594.98 355.569C1630.02 347.651 1664.57 338.599 1697.57 328.117C1766.5 306.273 1833.43 279.189 1897.95 252.331C1905.36 249.243 1912.73 246.112 1920.07 242.939V231.536C1800 283.892 1671.64 330.95 1531.55 358.346C1504.2 363.7 1476.84 366.859 1450.5 361.066C1435.39 357.737 1427.2 350.102 1421.18 341.276C1422.57 342.325 1424.05 343.316 1425.64 344.265C1445.09 355.839 1475.23 357.439 1500.41 355.031C1533.23 351.901 1564.55 344.407 1595.75 336.899C1630.68 328.499 1665.09 318.952 1698.25 308.299C1766.66 286.3 1834.48 261.525 1898.64 234.823C1905.8 231.834 1912.95 228.788 1920.07 225.728V214.792C1800.61 266.638 1670.73 312.365 1532.48 340.795C1505.16 346.419 1477.59 349.776 1451.23 343.897C1435.32 340.356 1427.14 331.97 1421 322.479C1422.8 323.924 1424.73 325.312 1426.84 326.601C1446.16 338.33 1476 339.874 1501.16 337.296C1534.07 333.91 1565.3 326.034 1596.5 318.215C1631.27 309.489 1665.5 299.729 1698.93 289.232C1767.7 267.644 1835.27 243.973 1899.32 217.314C1906.25 214.424 1913.18 211.478 1920.07 208.503V198.063C1800.57 249.668 1670.93 293.666 1533.41 323.173C1506.14 329.037 1478.27 332.65 1451.95 326.728C1435.39 323.017 1427.39 314.022 1421.18 304.007C1423.25 305.763 1425.52 307.435 1428.02 308.979C1447.27 320.779 1476.8 322.295 1501.93 319.518C1534.86 315.892 1566.02 307.747 1597.25 299.786C1631.82 290.975 1666.09 281.455 1699.61 271.37C1768.8 250.532 1836.07 226.408 1900 199.791C1906.7 197.001 1913.41 194.153 1920.07 191.292V181.334C1800.43 232.811 1671.55 275.421 1534.34 305.636C1507.07 311.642 1478.95 315.524 1452.68 309.574C1435.09 305.593 1426.52 295.168 1419.52 284.019C1422.2 286.697 1425.34 289.218 1429.14 291.47C1448.7 303.1 1477.55 304.715 1502.68 301.825C1535.57 298.043 1566.68 289.771 1598 281.909C1632.59 273.239 1666.86 263.919 1700.3 253.861C1769.48 233.024 1836.75 208.9 1900.68 182.283C1907.16 179.591 1913.61 176.843 1920.07 174.081V164.604C1800.95 216.124 1671.95 258.181 1535.27 288.34C1507.93 294.374 1479.75 298.397 1453.39 292.434C1435.09 288.297 1426.45 277.475 1419.43 265.916C1422.27 268.905 1425.68 271.667 1430 274.118C1449.86 285.365 1478.25 287.192 1503.43 284.303C1536.34 280.506 1567.45 272.333 1598.77 264.443C1633.3 255.731 1667.55 246.41 1700.95 236.352C1770.14 215.515 1837.3 191.377 1901.34 164.774C1907.64 162.168 1913.86 159.504 1920.07 156.799V147.62C1800.09 198.63 1672.52 242.146 1536.18 271.313C1508.64 277.206 1481.18 281.342 1454.09 275.293C1434.34 270.888 1426.11 259.541 1419.57 247.472C1422.41 250.844 1425.95 253.974 1430.68 256.708C1450.23 267.97 1479.41 269.712 1504.18 266.851C1537.07 263.069 1568.23 254.81 1599.52 246.906C1634.02 238.208 1668.25 228.887 1701.64 218.844C1770.8 198.021 1837.57 173.84 1901.55 147.18C1907.73 144.602 1913.91 141.996 1920.07 139.375V131.018C1800.64 181.943 1672.8 225.162 1537.11 254.187C1509.45 260.094 1482.3 264.145 1454.8 258.153C1433.2 253.45 1425.8 240.503 1419.52 227.315C1422.48 231.706 1426.36 235.757 1432.05 239.186C1451 250.617 1480.57 252.133 1504.95 249.328C1537.82 245.532 1568.98 237.273 1600.27 229.383C1634.75 220.685 1668.95 211.379 1702.32 201.335C1771.52 180.498 1838.61 156.204 1902.66 129.757C1908.48 127.349 1914.27 124.898 1920.07 122.419V114.642C1801.95 165.794 1672.52 208.291 1538.05 237.047C1510.32 242.968 1483.09 247.019 1455.52 240.999C1434.2 236.338 1427.52 222.796 1421.55 209.608C1424.41 214.013 1428.18 218.107 1433.68 221.606C1452.05 233.25 1481.68 234.568 1505.7 231.791C1538.59 228.009 1569.73 219.75 1601.02 211.846C1635.48 203.163 1669.66 193.856 1703 183.827C1772.18 162.989 1840.73 139.333 1904.41 112.461C1909.66 110.251 1914.89 107.984 1920.07 105.69V98.3377C1803.36 149.858 1672.45 191.377 1538.98 219.906C1511.18 225.856 1483.68 229.95 1456.25 223.858C1434.43 219.014 1428.39 204.239 1422.07 190.527C1425.39 195.57 1429.52 200.216 1435.32 204.041C1453.18 215.841 1482.7 217.002 1506.45 214.268C1539.34 210.472 1570.5 202.214 1601.8 194.323C1636.2 185.64 1670.36 176.347 1703.68 166.318C1773.48 145.296 1843.27 123.269 1906.36 95.193C1910.95 93.1532 1915.52 91.085 1920.07 88.9885V81.9057C1803.91 133.992 1673.8 174.152 1539.91 202.766C1512.02 208.73 1484.27 212.88 1456.95 206.704ZM1557.5 136.953C1530.82 141.146 1497.39 146.925 1470.57 140.225C1444.93 133.837 1476.18 111.512 1478.11 102.134C1481.52 85.5746 1429.18 85.0505 1413.07 85.0221C1375.59 84.9655 1336.41 88.436 1299.64 94.2439C1257.16 100.973 1215 118.424 1171.82 119.728C1139.7 120.691 1106.23 113.693 1074.91 108.154C1023.55 99.0743 971.023 86.0846 918.523 82.6282C882.977 80.2909 850.455 83.9314 816.182 91.085C776.614 99.3577 736.591 107.39 696.318 113.849C647.455 121.711 596.705 128.241 546.818 129.544C507.273 130.578 461.114 128.468 427.091 113.679C403.091 103.239 381.841 92.5865 354.023 87.2603C323.364 81.3816 289 81.0133 256.682 81.7357C220.591 82.5574 184.023 85.263 147.75 87.7136C107.705 90.4192 67.6591 93.2665 27.6364 96.1704C18.4091 96.8504 9.20454 97.502 0 98.1678V102.177C68.7273 97.077 137.568 91.6658 206.273 87.5436C240.659 85.4896 275.818 83.9314 309.568 85.9712C340.568 87.8411 372.705 93.054 398.227 105.336C425.591 118.481 451.909 127.731 485.864 131.513C530.818 136.514 580.023 132.278 625.045 127.25C671.955 121.994 719 114.43 764.682 105.534C800.455 98.5644 835.841 89.6259 872.727 85.7021C896.682 83.1665 921.523 84.8097 945.091 87.5294C974.614 90.9292 1004.14 97.0062 1033.14 102.531C1069.18 109.387 1106.64 118.099 1143.43 121.484C1187.93 125.592 1216.57 116.271 1256.77 106.044C1288.84 97.8844 1323.82 93.6065 1358.16 90.6034C1385.98 88.1811 1448.98 81.325 1467.41 97.0487C1481.02 108.679 1445.73 123.977 1453.91 136.939C1461.66 149.192 1500.07 146.727 1516.07 145.438C1552.27 142.534 1589.11 134.998 1624.84 128.142C1662.8 120.861 1700.75 112.617 1736.36 102.162C1769.09 92.5724 1800.55 80.8292 1829.43 66.7628C1855.84 53.9005 1879.41 39.395 1910.14 31.094C1913.41 30.2016 1916.73 29.3658 1920.07 28.5867V26.8302C1869.14 39.2958 1832.86 63.5189 1785.36 82.3024C1716.11 109.67 1635.82 124.629 1557.5 136.953ZM1784.93 23.0905C1760.77 30.6124 1740.11 41.6048 1718.98 51.9032C1691.86 65.1054 1662.23 74.8938 1630.52 82.0332C1607.5 87.2036 1575.7 93.564 1551.64 87.0195C1538.27 83.379 1534.91 75.2196 1529.8 67.4002C1522.11 55.6995 1510.7 45.1604 1497.05 36.6469C1471.75 20.8948 1434.73 11.2906 1397.32 13.118C1362.02 14.8462 1329.61 22.3539 1296.98 31.0798C1227.57 49.6367 1154.14 69.6667 1077.27 71.0691C1037.66 71.8057 996.25 68.066 960.341 59.2834C928.227 51.4357 909.045 26.9152 874.795 22.3539C841.068 17.8776 808.977 24.507 777.136 32.6947C742.545 41.5907 708.045 52.314 673.045 60.2608C637.614 68.3068 599.659 74.058 562.455 74.738C526.386 75.4179 492.5 69.9217 462.25 56.082C433.477 42.9364 403.841 28.955 370.864 22.1697C338.568 15.5119 303.045 14.152 268.364 14.8462C231.341 15.5828 193.682 18.4017 156.455 20.6399C115.068 23.1188 73.5455 25.527 32.1591 28.1051C21.4545 28.7709 10.7273 29.465 0 30.1591V32.5956C72.5909 27.8643 145.364 23.5296 217.909 19.4924C253.659 17.5093 289.659 16.1777 324.977 18.6142C362.182 21.1781 398.727 30.2441 429.455 44.1405C455.818 56.0678 482.818 71.0833 515.568 74.6813C550.477 78.506 586.114 76.6787 620.386 72.089C655.659 67.3577 690.045 59.1984 723.386 49.9625C758.159 40.3158 793.545 28.7142 829.864 24.5354C850.136 22.1981 870.091 22.7647 888.295 28.1759C904.705 33.0489 916.136 43.7155 930.795 50.8124C958.932 64.4397 999.636 69.4259 1034.86 71.6357C1106 76.0979 1171.66 65.0204 1237.66 49.5658C1275.91 40.5991 1313.64 28.8275 1352.73 21.334C1395.16 13.203 1438.55 13.0046 1474.75 27.9209C1492.18 35.1029 1507.11 45.2737 1517.75 57.3994C1524.77 65.4171 1526.75 75.2621 1535.36 82.6282C1548.32 93.7339 1575.95 91.9066 1593.89 90.0226C1624.95 86.7362 1656.02 78.9593 1684.09 69.0718C1709.25 60.2183 1730.98 48.0926 1754.23 37.5393C1801.59 16.0502 1854.73 13.6421 1909.07 4.83113C1912.77 4.23618 1916.45 3.55624 1920.07 2.81963V0.0715179C1875.8 9.3641 1827.7 9.78907 1784.93 23.0905ZM1714.64 70.0209C1683.55 81.7216 1649.27 89.9942 1615.14 96.3262C1591.41 100.718 1557.16 107.361 1533.41 100.718C1521.95 97.5161 1522.09 90.1642 1521.52 83.209C1520.66 72.344 1517.93 64.4821 1507.91 56.1245C1487.61 39.1825 1446.32 32.1564 1412.34 33.3747C1374.52 34.7204 1338.64 41.789 1302.75 49.58C1238 63.618 1169.3 82.6707 1099.61 83.4923C1059.61 83.9597 1018.09 79.6959 980.909 72.854C959.841 68.9868 939.091 63.1506 919.864 55.6854C905.091 49.9483 890.955 41.7465 874.023 39.5225C840.386 35.1029 808.159 41.5907 776.455 49.8633C743.545 58.4476 710.409 68.0944 676.568 74.8938C638.614 82.529 598.159 87.8269 558.75 88.6344C523.273 89.3568 486.591 85.8721 457 71.8765C429.841 59.0001 401.159 46.3503 369.386 39.9333C336.977 33.403 301.545 31.9439 266.864 32.5531C229.955 33.1905 192.455 35.8678 155.341 37.9926C114.045 40.3724 72.6136 42.6814 31.3409 45.217C20.8864 45.8687 10.4545 46.5344 0 47.2144V50.09C72.1591 45.4295 144.477 41.2082 216.614 37.426C252.273 35.5561 288.591 34.1396 323.386 36.8027C360.455 39.6358 396.523 48.0218 427.25 61.3657C453.591 72.7973 476.614 85.1213 508.523 89.0735C544.682 93.564 584.955 90.5609 621.432 86.1837C657.659 81.8349 693.364 74.7097 727.795 65.9412C761.318 57.3994 794.409 46.1236 829.045 42.1148C849.227 39.7916 868.886 40.3724 887.295 45.6845C906.182 51.1099 924.341 60.19 944.023 65.9412C980 76.452 1022.48 81.5941 1061.93 84.0872C1124.75 88.0394 1178.64 78.761 1238.36 66.437C1280.07 57.8243 1321.82 47.9368 1364.2 41.2649C1405.02 34.8479 1454.05 31.9864 1488.16 48.2485C1502.36 55.0196 1513.32 62.7681 1515.5 74.823C1516.84 82.1466 1513.59 90.3484 1518.39 96.9637C1526.52 108.14 1559.8 105.279 1574.73 103.933C1608.64 100.888 1642.77 93.564 1674.61 84.8947C1704.59 76.7353 1731.93 66.4653 1757.68 53.4897C1779.43 42.5256 1801.25 31.689 1827.16 24.7337C1853.27 17.7218 1881.5 15.3136 1909.09 12.3105C1912.77 11.8997 1916.43 11.4748 1920.07 11.0215V9.49159C1875.41 15.8944 1830.27 18.3734 1790.25 35.0462C1764.07 45.9536 1741.66 59.85 1714.64 70.0209ZM1790.75 66.0262C1727.68 95.9154 1650.73 111.696 1575.39 123.142C1549.7 127.051 1515.14 133.213 1488.95 126.555C1467.61 121.144 1497.41 97.4453 1495.52 88.5777C1491.89 71.4374 1443.84 69.7092 1421.73 69.9925C1381.02 70.4883 1340 74.9646 1300.43 81.24C1252.61 88.8327 1201.16 106.44 1151.11 106.837C1115.3 107.106 1078.95 101.454 1044.32 96.2554C994.068 88.7194 943.909 74.4122 893.659 70.205C860.273 67.4144 829.932 71.3524 797.909 78.7327C762.364 86.9345 726.341 94.8105 689.886 100.888C644.636 108.424 597.295 114.203 550.932 115.308C512.955 116.229 469.773 114.302 437.818 100.009C413.614 89.1868 390.841 78.0386 362.614 72.6982C331.182 66.7628 296.295 65.7429 262.659 66.3095C225.955 66.9186 188.727 69.4684 151.841 71.6641C111.023 74.1005 70.1818 76.6645 29.3864 79.3559C19.5909 80.0076 9.79546 80.6733 0 81.325V84.9513C70.6136 80.1209 141.341 75.3188 211.932 71.6074C247.091 69.7659 283 68.406 317.409 70.7433C349.705 72.9531 383.182 78.676 409.977 91.3541C436.455 103.891 460.477 113.566 492.909 116.753C535.318 120.932 581.386 117.66 624.659 112.942C667.205 108.31 710 101.497 751.114 92.8132C783.795 85.9146 815.932 76.9903 849.795 73.024C872.045 70.4175 895.114 72.2732 916.886 75.3188C945.045 79.2426 973.227 85.7304 1001.27 90.7167C1040.52 97.7003 1081.45 104.769 1121.64 107.942C1169.36 111.696 1204.34 103.253 1249.07 93.7764C1286.55 85.8296 1325.64 80.1917 1364.73 76.3529C1397.64 73.1373 1457.34 66.0828 1483.07 82.8832C1502 95.2355 1468.05 111.837 1473.77 123.283C1479.27 134.247 1516.57 132.066 1532.05 130.904C1568.8 128.142 1606.18 121.045 1642.05 113.849C1678.23 106.596 1714.27 97.9411 1747.27 86.6654C1803.39 67.4852 1847.32 34.6212 1910.05 23.303C1913.34 22.708 1916.7 22.1697 1920.07 21.6739V20.4274C1901.82 22.878 1883.95 26.1077 1866.95 31.3632C1838.16 40.2591 1816.02 54.0422 1790.75 66.0262ZM1792.3 49.2542C1732.3 79.2709 1669.55 97.8703 1595.68 109.812C1571 113.806 1536.36 120.195 1511.2 113.651C1492.11 108.664 1513.43 83.7614 1507.16 73.5056C1495.82 54.9346 1448.25 52.0307 1422.02 52.5689C1381.55 53.3764 1341.3 59.7792 1302.11 66.5928C1245.7 76.3812 1185.25 94.6689 1125.64 95.0797C1087.18 95.3488 1047.89 90.3909 1010.93 84.838C965.523 78.0244 921.955 61.1108 877.341 56.0678C844.909 52.399 814.614 57.4419 783.545 65.2896C750.364 73.6756 716.886 82.0191 682.75 88.1669C641.318 95.6321 597.636 100.944 554.909 101.907C518.636 102.729 478.614 100.406 448.341 86.2971C423.045 74.4972 397.659 62.8389 367.932 57.0736C335.659 50.8124 300.205 49.3959 265.727 49.9342C228.886 50.5008 191.455 53.0222 154.386 55.1187C113.182 57.4419 71.9091 59.8358 30.7273 62.3998C20.4773 63.0373 10.2273 63.703 0 64.3547V67.6127C71.7727 62.9523 143.705 58.5751 215.455 54.9771C251.045 53.1922 287.25 51.9173 322.045 54.4813C356.068 56.9744 391.864 63.7172 420.318 76.9195C446.477 89.0593 468.909 99.5701 500.727 102.857C540 106.908 583.045 104.004 623.159 99.5276C661.886 95.2213 700.864 88.6344 737.932 79.9226C769.636 72.4715 800.841 62.8106 833.682 58.7876C854.705 56.2236 875.568 57.8952 895.75 61.7057C920.227 66.3378 944.886 73.8597 969.545 78.8885C1008.93 86.9062 1051.32 93.0115 1092.66 95.8304C1146.8 99.5135 1190.91 91.1558 1242.48 80.8858C1284.16 72.599 1326.45 65.2329 1369.3 59.935C1406.95 55.2887 1460.64 49.6933 1492.36 66.8195C1517.55 80.4042 1489 96.8645 1496.55 110.237C1502.64 120.988 1537.75 118.509 1552.86 117.32C1588.73 114.486 1625.11 107.432 1659.64 99.6268C1693 92.0766 1725.93 82.7557 1755.07 70.5592C1780.5 59.9067 1803.36 45.5995 1830.14 35.4428C1855.05 25.9803 1881.34 20.994 1909.57 17.7501C1913.05 17.3393 1916.55 16.9568 1920.07 16.5885V15.3136C1899.89 17.4243 1879.68 19.6483 1860.43 23.9546C1835.14 29.6066 1813.16 38.8142 1792.3 49.2542Z" fill="#5505AB" fill-opacity="0.2"/>
</g>
</svg>
